HIERARCHY
ROOT Hips
{
	OFFSET 0.00000 0.00000 0.00000
	CHANNELS 6 Xposition Yposition Zposition Zrotation Yrotation Xrotation 
	JOINT LHipJoint
	{
		OFFSET 0 0 0
		CHANNELS 3 Zrotation Yrotation Xrotation
		JOINT LeftUpLeg
		{
			OFFSET 1.55766 -1.60504 1.11378
			CHANNELS 3 Zrotation Yrotation Xrotation
			JOINT LeftLeg
			{
				OFFSET 2.29047 -6.29302 0.00000
				CHANNELS 3 Zrotation Yrotation Xrotation
				JOINT LeftFoot
				{
					OFFSET 2.52265 -6.93093 0.00000
					CHANNELS 3 Zrotation Yrotation Xrotation
					JOINT LeftToeBase
					{
						OFFSET 0.17633 -0.48446 2.02656
						CHANNELS 3 Zrotation Yrotation Xrotation
						End Site
						{
							OFFSET 0.00000 -0.00000 1.04989
						}
					}
				}
			}
		}
	}
	JOINT RHipJoint
	{
		OFFSET 0 0 0
		CHANNELS 3 Zrotation Yrotation Xrotation
		JOINT RightUpLeg
		{
			OFFSET -1.48599 -1.60504 1.11378
			CHANNELS 3 Zrotation Yrotation Xrotation
			JOINT RightLeg
			{
				OFFSET -2.27280 -6.24448 0.00000
				CHANNELS 3 Zrotation Yrotation Xrotation
				JOINT RightFoot
				{
					OFFSET -2.50834 -6.89161 0.00000
					CHANNELS 3 Zrotation Yrotation Xrotation
					JOINT RightToeBase
					{
						OFFSET -0.26967 -0.74090 2.08741
						CHANNELS 3 Zrotation Yrotation Xrotation
						End Site
						{
							OFFSET -0.00000 -0.00000 1.10614
						}
					}
				}
			}
		}
	}
	JOINT LowerBack
	{
		OFFSET 0 0 0
		CHANNELS 3 Zrotation Yrotation Xrotation
		JOINT Spine
		{
			OFFSET 0.06481 2.02437 -0.08472
			CHANNELS 3 Zrotation Yrotation Xrotation
			JOINT Spine1
			{
				OFFSET 0.00015 1.96711 0.18069
				CHANNELS 3 Zrotation Yrotation Xrotation
				JOINT Neck
				{
					OFFSET 0 0 0
					CHANNELS 3 Zrotation Yrotation Xrotation
					JOINT Neck1
					{
						OFFSET -0.29961 1.68293 -0.13041
						CHANNELS 3 Zrotation Yrotation Xrotation
						JOINT Head
						{
							OFFSET 0.59697 1.61501 -0.14669
							CHANNELS 3 Zrotation Yrotation Xrotation
							End Site
							{
								OFFSET 0.22973 1.74906 -0.10148
							}
						}
					}
				}
				JOINT LeftShoulder
				{
					OFFSET 0 0 0
					CHANNELS 3 Zrotation Yrotation Xrotation
					JOINT LeftArm
					{
						OFFSET 3.37968 1.02893 0.31147
						CHANNELS 3 Zrotation Yrotation Xrotation
						JOINT LeftForeArm
						{
							OFFSET 5.19807 -0.00000 -0.00000
							CHANNELS 3 Zrotation Yrotation Xrotation
							JOINT LeftHand
							{
								OFFSET 3.09370 -0.00000 -0.00000
								CHANNELS 3 Zrotation Yrotation Xrotation
								JOINT LeftFingerBase
								{
									OFFSET 0 0 0
									CHANNELS 3 Zrotation Yrotation Xrotation
									JOINT LeftHandIndex1
									{
										OFFSET 0.67263 -0.00000 -0.00000
										CHANNELS 3 Zrotation Yrotation Xrotation
										End Site
										{
											OFFSET 0.54229 -0.00000 -0.00000
										}
									}
								}
								JOINT LThumb
								{
									OFFSET 0 0 0
									CHANNELS 3 Zrotation Yrotation Xrotation
									End Site
									{
										OFFSET 0.55057 -0.00000 0.55057
									}
								}
							}
						}
					}
				}
				JOINT RightShoulder
				{
					OFFSET 0 0 0
					CHANNELS 3 Zrotation Yrotation Xrotation
					JOINT RightArm
					{
						OFFSET -3.38254 0.96355 -0.16120
						CHANNELS 3 Zrotation Yrotation Xrotation
						JOINT RightForeArm
						{
							OFFSET -5.45222 -0.00000 -0.00000
							CHANNELS 3 Zrotation Yrotation Xrotation
							JOINT RightHand
							{
								OFFSET -3.01284 -0.00000 -0.00000
								CHANNELS 3 Zrotation Yrotation Xrotation
								JOINT RightFingerBase
								{
									OFFSET 0 0 0
									CHANNELS 3 Zrotation Yrotation Xrotation
									JOINT RightHandIndex1
									{
										OFFSET -0.62230 -0.00000 -0.00000
										CHANNELS 3 Zrotation Yrotation Xrotation
										End Site
										{
											OFFSET -0.50171 -0.00000 -0.00000
										}
									}
								}
								JOINT RThumb
								{
									OFFSET 0 0 0
									CHANNELS 3 Zrotation Yrotation Xrotation
									End Site
									{
										OFFSET -0.50937 -0.00000 0.50937
									}
								}
							}
						}
					}
				}
			}
		}
	}
}
MOTION
Frames: 9
Frame Time: .0083333
-7.0360 16.3611 3.5938 1.1974 7.9333 364.9670 0.0000 0.0000 0.0000 -23.1363 -5.0540 -12.5113 2.5751 9.9731 28.8898 0.2579 -18.9379 -15.4789 0.0275 1.0705 2.9429 0.0000 0.0000 0.0000 9.7840 23.6833 -22.3064 -3.6955 -11.7438 34.8315 1.6167 26.1613 -5.8059 -0.6438 5.1329 -14.2881 -2.2956 0.0396 0.9781 -0.8950 -0.1042 -6.5589 0.3550 0.0614 -7.3881 -32.5530 -9.4446 15.4257 33.6541 -20.5721 7.7942 16.8301 -11.7452 7.2078 0.0000 -0.0000 0.0000 -80.7907 9.8856 34.6745 25.9337 -37.1431 -8.8476 -0.0000 0.0000 -41.6792 14.7286 -11.6766 -3.0455 -7.1250 0.0000 -0.0000 -8.6914 17.9988 5.6459 0.0000 -0.0000 0.0000 90.0639 -7.0695 11.5291 -13.4707 21.9729 -2.6268 0.0000 0.0000 22.3492 -8.6334 -3.5458 0.5380 7.1250 -0.0000 -0.0000 14.5836 -33.2967 4.3034
-7.0591 16.3552 3.6728 1.2451 8.3652 364.8940 0.0000 0.0000 0.0000 -23.0877 -5.2390 -12.0235 2.5664 9.9576 28.8394 0.2736 -19.0287 -15.6584 0.0228 0.9752 2.6807 0.0000 0.0000 0.0000 10.0486 23.2608 -21.8519 -3.6980 -11.7473 34.8438 1.5327 26.0845 -6.5553 -0.6667 5.2218 -14.5423 -2.2957 0.0973 0.8010 -0.9631 -0.0245 -6.5763 0.2782 0.0983 -7.3056 -32.5920 -9.4054 15.4546 33.5933 -20.5628 8.0039 16.8273 -11.7443 7.2598 -0.0000 -0.0000 0.0000 -80.7927 10.0307 34.6713 26.0733 -37.2811 -8.9320 -0.0000 0.0000 -41.6130 14.6036 -11.7574 -3.0391 -7.1250 0.0000 -0.0000 -8.7774 17.9247 5.7177 -0.0000 -0.0000 0.0000 90.1467 -7.1336 11.6261 -13.3671 21.8227 -2.5881 0.0000 0.0000 22.4617 -8.5715 -3.4951 0.5265 7.1250 -0.0000 -0.0000 14.6238 -33.2446 4.3350
-7.0812 16.3528 3.7504 1.2685 8.7953 364.8500 0.0000 0.0000 0.0000 -23.0188 -5.4803 -11.5412 2.5521 9.9321 28.7571 0.2916 -19.0564 -15.8169 0.0176 0.8564 2.3538 0.0000 0.0000 0.0000 10.3522 22.7234 -21.4749 -3.6992 -11.7491 34.8499 1.4417 25.9542 -7.2706 -0.6829 5.2837 -14.7196 -2.2609 0.1585 0.6044 -1.0244 0.0625 -6.5996 0.1890 0.1370 -7.2180 -32.6285 -9.3575 15.4716 33.5345 -20.5316 8.1960 16.8273 -11.7312 7.2998 -0.0000 0.0000 0.0000 -80.8103 10.2071 34.6281 26.2188 -37.4239 -9.0203 -0.0000 0.0000 -41.5509 14.4989 -11.8527 -3.0404 -7.1250 0.0000 -0.0000 -8.8492 17.8347 5.7833 -0.0000 0.0000 0.0000 90.2134 -7.1906 11.7636 -13.2567 21.6621 -2.5472 0.0000 0.0000 22.5945 -8.4988 -3.4486 0.5150 7.1250 -0.0000 -0.0000 14.6735 -33.1963 4.3683
-7.1021 16.3535 3.8264 1.2619 9.2191 364.8310 0.0000 0.0000 0.0000 -22.9242 -5.7748 -11.0695 2.5336 9.8988 28.6495 0.3121 -19.0217 -15.9575 0.0123 0.7149 1.9647 0.0000 0.0000 0.0000 10.6869 22.1188 -21.1599 -3.6967 -11.7455 34.8377 1.3476 25.7823 -7.9397 -0.6981 5.3408 -14.8832 -2.1810 0.2241 0.4038 -1.0803 0.1575 -6.6381 0.0802 0.1774 -7.1441 -32.6594 -9.2969 15.4909 33.4761 -20.4762 8.3704 16.8307 -11.7060 7.3235 0.0000 0.0000 0.0000 -80.8440 10.4177 34.5391 26.3532 -37.5553 -9.1021 -0.0000 0.0000 -41.4930 14.4218 -11.9658 -3.0520 -7.1250 0.0000 -0.0000 -8.9014 17.7247 5.8400 0.0000 0.0000 0.0000 90.2685 -7.2483 11.9331 -13.1355 21.4855 -2.5027 0.0000 0.0000 22.7608 -8.4173 -3.4203 0.5058 7.1250 -0.0000 -0.0000 14.7331 -33.1653 4.3985
-7.1220 16.3571 3.9002 1.2161 9.6315 364.8340 0.0000 0.0000 0.0000 -22.7927 -6.1148 -10.6178 2.5130 9.8615 28.5293 0.3350 -18.9293 -16.0826 0.0074 0.5562 1.5282 0.0000 0.0000 0.0000 11.0514 21.5034 -20.8883 -3.6887 -11.7342 34.7980 1.2566 25.5907 -8.5411 -0.7116 5.3911 -15.0274 -2.0509 0.2978 0.2059 -1.1270 0.2654 -6.6898 -0.0476 0.2219 -7.0853 -32.6844 -9.2216 15.5107 33.4259 -20.3928 8.5206 16.8415 -11.6666 7.3286 0.0000 0.0000 0.0000 -80.8985 10.6524 34.4072 26.4663 -37.6655 -9.1711 -0.0000 0.0000 -41.4469 14.3896 -12.0966 -3.0776 -7.1250 0.0000 -0.0000 -8.9221 17.5939 5.8799 0.0000 0.0000 0.0000 90.3103 -7.3110 12.1412 -13.0148 21.3088 -2.4586 0.0000 0.0000 22.9517 -8.3308 -3.4082 0.4988 7.1250 -0.0000 -0.0000 14.7996 -33.1502 4.4251
-7.1411 16.3625 3.9716 1.1331 10.0269 364.8610 0.0000 0.0000 0.0000 -22.6245 -6.4946 -10.2025 2.4937 9.8264 28.4164 0.3602 -18.7884 -16.1987 0.0035 0.3837 1.0543 0.0000 0.0000 0.0000 11.4338 20.9195 -20.6492 -3.6741 -11.7136 34.7262 1.1715 25.3880 -9.0670 -0.7217 5.4284 -15.1345 -1.8782 0.3808 0.0014 -1.1634 0.3877 -6.7496 -0.1887 0.2715 -7.0305 -32.7018 -9.1353 15.5255 33.3860 -20.2854 8.6482 16.8591 -11.6145 7.3185 -0.0000 0.0000 0.0000 -80.9832 10.8796 34.2158 26.5295 -37.7268 -9.2097 -0.0000 0.0000 -41.4094 14.4112 -12.2414 -3.1186 -7.1250 0.0000 -0.0000 -8.9053 17.4454 5.8980 -0.0000 0.0000 0.0000 90.3360 -7.3677 12.3962 -12.8972 21.1364 -2.4161 0.0000 0.0000 23.1538 -8.2403 -3.3813 0.4894 7.1250 -0.0000 -0.0000 14.8666 -33.1203 4.4575
-7.1595 16.3691 4.0410 1.0085 10.4037 364.9040 0.0000 0.0000 0.0000 -22.4138 -6.8993 -9.8288 2.4789 9.7993 28.3294 0.3877 -18.6157 -16.3149 0.0010 0.2048 0.5627 0.0000 0.0000 0.0000 11.8382 20.3871 -20.4244 -3.6530 -11.6837 34.6220 1.0946 25.1880 -9.5174 -0.7291 5.4556 -15.2128 -1.6601 0.4739 -0.2046 -1.1882 0.5251 -6.8177 -0.3435 0.3264 -6.9828 -32.7134 -9.0396 15.5295 33.3541 -20.1580 8.7663 16.8823 -11.5514 7.2999 0.0000 0.0000 0.0000 -81.0994 11.1233 33.9606 26.5612 -37.7575 -9.2292 -0.0000 0.0000 -41.3891 14.4843 -12.3826 -3.1707 -7.1250 0.0000 -0.0000 -8.8530 17.2967 5.8917 0.0000 0.0000 0.0000 90.3465 -7.4289 12.6971 -12.7843 20.9704 -2.3755 0.0000 0.0000 23.3677 -8.1496 -3.3384 0.4778 7.1250 -0.0000 -0.0000 14.9309 -33.0749 4.4949
-7.1773 16.3761 4.1083 0.8425 10.7592 364.9600 0.0000 0.0000 0.0000 -22.1591 -7.3215 -9.5073 2.4713 9.7855 28.2848 0.4175 -18.4199 -16.4386 0.0000 0.0202 0.0554 0.0000 0.0000 0.0000 12.2636 19.9133 -20.2134 -3.6263 -11.6458 34.4901 1.0275 25.0028 -9.8969 -0.7328 5.4693 -15.2521 -1.4023 0.5797 -0.4282 -1.2008 0.6813 -6.8809 -0.5078 0.3887 -6.9183 -32.7138 -8.9437 15.5188 33.3329 -20.0201 8.8642 16.9080 -11.4812 7.2734 0.0000 0.0000 0.0000 -81.2469 11.3507 33.6467 26.5515 -37.7482 -9.2232 -0.0000 0.0000 -41.3832 14.5926 -12.5235 -3.2311 -7.1250 0.0000 -0.0000 -8.7768 17.1460 5.8690 0.0000 0.0000 0.0000 90.3375 -7.4758 13.0482 -12.6750 20.8091 -2.3366 0.0000 0.0000 23.5835 -8.0710 -3.2618 0.4623 7.1250 -0.0000 -0.0000 14.9797 -32.9972 4.5397
-7.1948 16.3832 4.1734 0.6431 11.0957 365.0290 0.0000 0.0000 0.0000 -21.8682 -7.7569 -9.2429 2.4722 9.7872 28.2904 0.4494 -18.2087 -16.5726 0.0007 -0.1684 -0.4627 0.0000 0.0000 0.0000 12.7015 19.4896 -20.0239 -3.5961 -11.6026 34.3402 0.9712 24.8444 -10.2112 -0.7332 5.4705 -15.2555 -1.1144 0.6959 -0.6534 -1.2026 0.8520 -6.9494 -0.6775 0.4570 -6.8569 -32.7123 -8.8473 15.4972 33.3182 -19.8769 8.9549 16.9362 -11.4072 7.2453 0.0000 -0.0000 0.0000 -81.4227 11.5966 33.2777 26.5180 -37.7157 -9.2027 -0.0000 0.0000 -41.3960 14.7147 -12.6593 -3.2940 -7.1250 0.0000 -0.0000 -8.6913 16.9991 5.8387 0.0000 -0.0000 0.0000 90.3087 -7.5200 13.4506 -12.5691 20.6525 -2.2991 0.0000 0.0000 23.7987 -8.0065 -3.1604 0.4443 7.1250 -0.0000 -0.0000 15.0129 -32.8958 4.5884
